<svg
  width="187"
  height="582"
  viewBox="0 0 187 582"
  fill="none"
  xmlns="http://www.w3.org/2000/svg"
>
<path
    d="M150.913 123.616C150.617 126.54 137.486 132.448 120.378 136.528C105.011 140.195 86.441 142.385 71.0904 139.609C55.4137 136.775 43.0936 128.752 40.97 111.85C37.109 81.0761 43.3841 54.7888 49.429 37.9822C50.1963 35.838 50.9663 33.8512 51.7062 32.0299C52.7557 29.4514 53.7531 27.2013 54.6382 25.3068C56.77 20.7604 58.258 18.2823 58.258 18.2823C58.258 18.2823 107.7 -6.22999 131.164 9.99842C134.685 12.4412 137.623 18.285 140.067 26.1292C140.966 29.0063 141.793 32.1521 142.56 35.4933C143.563 39.8578 144.459 44.5534 145.254 49.4336C150.315 80.3704 151.43 118.484 150.913 123.616Z"
    fill="#4C558C"
  />
<path
    d="M120.377 136.521C105.01 140.188 86.44 142.378 71.0894 139.601C72.0125 138.88 72.8825 138.095 73.6926 137.251C76.6124 134.116 78.1584 129.963 77.9919 125.702L77.907 123.503L77.8247 115.398L77.7974 112.733V112.676L77.759 108.941L77.7042 103.76L116.369 98.771L116.316 114.296V114.324V115.803V117.005V117.92C116.297 123.261 117.295 128.557 119.257 133.532L120.377 136.521Z"
    fill="#F6C0A4"
  />
<path
    d="M139.403 151.161L140.7 151.327C141.409 152.638 140.587 152.157 139.403 151.161Z"
    fill="#F6C0A4"
  />
<path
    d="M77.707 108.944L77.9098 117.32C77.9098 117.32 87.021 128.652 97.7243 128.34C108.428 128.028 116.358 116.924 116.358 116.924L116.155 106.751L77.707 108.944Z"
    fill="#ED9C82"
  />
<path
    d="M54.2977 81.3213C54.2977 81.2806 54.284 81.2589 54.284 81.2589C54.284 81.2589 49.8777 79.701 47.6746 70.0356C45.4715 60.3702 50.8232 60.3674 50.8232 60.3674C50.8232 60.3674 48.5926 49.8905 52.0562 29.9273C55.5199 9.9641 132.755 20.7993 139.365 25.4759C145.974 30.1525 140.535 59.7459 140.535 59.7459C140.535 59.7459 147.459 52.2627 145.886 66.6047C144.314 80.9468 138.017 81.5711 138.017 81.5711C138.017 81.5711 134.09 95.5331 127.645 103.556C113.045 121.742 105.594 123.661 95.8365 123.661C86.0786 123.661 70.654 109.631 70.654 109.631L69.2428 108.274C61.6472 100.976 56.4404 91.5858 54.2977 81.3213Z"
    fill="#F6C0A4"
  />
<path
    d="M126.856 58.3201L121.395 58.5699C120.299 58.5699 104.68 59.6094 104.68 58.5129V56.2655C104.681 55.7368 104.894 55.2302 105.271 54.8564C105.649 54.4826 106.16 54.2719 106.694 54.2705H124.702C125.236 54.2727 125.746 54.4836 126.123 54.8574C126.5 55.2311 126.712 55.7373 126.714 56.2655V58.5129L126.856 58.3201Z"
    fill="#4C558C"
  />
<path
    d="M79.1523 74.0916C82.456 74.0916 85.1341 71.4388 85.1341 68.1664C85.1341 64.894 82.456 62.2412 79.1523 62.2412C75.8486 62.2412 73.1704 64.894 73.1704 68.1664C73.1704 71.4388 75.8486 74.0916 79.1523 74.0916Z"
    fill="#411E13"
  />
<path
    d="M115.352 74.0916C118.656 74.0916 121.334 71.4388 121.334 68.1664C121.334 64.894 118.656 62.2412 115.352 62.2412C112.048 62.2412 109.37 64.894 109.37 68.1664C109.37 71.4388 112.048 74.0916 115.352 74.0916Z"
    fill="#411E13"
  />
<path
    d="M88.8564 93.7856H106.627C106.627 93.7856 105.361 100.46 97.4196 100.121C89.4785 99.7813 88.8564 93.7856 88.8564 93.7856Z"
    fill="white"
  />
<path
    d="M142.376 71.9187C143.351 61.9466 147.385 62.3944 144.294 40.7375C143.28 33.6479 144.294 26.9601 139.156 18.0574C128.938 0.344322 112.998 -0.228415 99.9959 0.0402939C78.4716 0.482714 56.5663 8.9973 52.2751 24.8403C47.8442 41.1936 47.2305 56.4801 49.1788 57.7666C51.127 59.0532 52.7739 76.978 52.7739 76.978C52.7739 76.978 57.6213 70.6322 57.6213 63.2332C57.6213 56.4313 52.1217 47.6833 73.0734 37.5755C74.7997 36.7431 76.4831 35.8384 78.1235 34.8612C84.3517 31.1513 91.051 28.2797 98.0448 26.3223L99.0423 26.0508C99.9027 26.1594 110.636 27.3238 119.66 29.4137C122.583 30.091 125.28 31.5057 127.489 33.5203C129.697 35.5349 131.343 38.081 132.265 40.9113L133.325 53.5623C133.916 60.5975 137.151 67.1569 142.39 71.9432L142.376 71.9187Z"
    fill="#4C558C"
  />
<path
    d="M67.8521 58.2534L73.1872 58.3864C74.2833 58.3864 90.0148 59.5427 90.0148 58.4461V56.2015C90.0134 55.6729 89.8007 55.1663 89.4233 54.7925C89.046 54.4186 88.5345 54.208 88.0008 54.2065H69.9922C69.4587 54.208 68.9475 54.4187 68.5706 54.7926C68.1936 55.1665 67.9816 55.6731 67.9808 56.2015V58.4461L67.8521 58.2534Z"
    fill="#4C558C"
  />
<path
    d="M45.7454 502.393C44.6493 487.606 43.597 471.109 42.6133 454.259L45.7454 502.393Z"
    fill="#F6C0A4"
  />
<path
    d="M51.201 152.64H51.127C43.6901 153.294 31.5098 155.794 31.5098 156.464L34.5076 220.129L28.027 252.546C24.4647 263.237 14.9069 260.547 5.52447 256.487C-2.46323 253.026 4.26122 273.187 1.15656 264.087C0.334499 261.674 0.655105 256.973 1.3292 252.657C1.71224 250.072 2.27533 247.516 3.01443 245.008L16.6744 174.064C17.6506 168.852 19.7671 163.915 22.8754 159.599C26.0157 155.284 30.6796 150.667 32.9046 150.032L53.7549 148.75C51.4997 149.212 50.6858 150.68 51.201 152.64Z"
    fill="#F6C0A4"
  />
<path
    d="M35.998 352.648L35.6226 346.85C35.9432 349.646 36.1076 351.755 35.998 352.648Z"
    fill="#F6C0A4"
  />
<path
    d="M43.9665 329.342C41.0673 331.367 36.9186 330.156 34.4661 329.116L34.4004 328.099H34.4826C34.3894 325.526 34.3812 322.059 34.425 318.034C36.9789 320.442 39.9822 323.284 40.6782 323.965C41.9415 325.189 45.2982 328.414 43.9665 329.342Z"
    fill="#F6C0A4"
  />
<path
    d="M73.0066 550.511C72.6394 553.027 72.3161 554.761 72.0421 555.608C66.0136 574.195 61.3909 560.798 53.4799 560.798C52.7209 560.798 51.9453 558.588 51.1671 554.59C54.4068 551.118 58.8383 548.968 63.594 548.562C67.3426 548.193 70.4473 549.01 73.0066 550.511Z"
    fill="#F6C0A4"
  />
<path
    d="M134.377 554.463C133.76 557.177 133.141 558.643 132.53 558.643C124.772 558.643 115.499 571.611 109.602 553.019C109.602 552.997 109.589 552.975 109.578 552.951C112.608 550.399 116.367 548.846 120.33 548.508C126.712 547.876 131.228 550.693 134.377 554.463Z"
    fill="#F6C0A4"
  />
<path
    d="M139.403 151.161L140.7 151.327C141.409 152.638 140.587 152.157 139.403 151.161Z"
    fill="#F6C0A4"
  />
<path
    d="M151.767 326.078L151.583 328.792L150.63 342.743L149.704 356.266C146.196 353.524 142.483 349.61 142.379 348.066C142.275 346.522 147.322 335.456 151.767 326.078Z"
    fill="#F6C0A4"
  />
<path
    d="M152.49 315.488L151.816 325.343C149.623 325.759 143.938 326.443 141.277 323.156C140.26 321.899 144.387 319.722 145.935 318.889C146.702 318.479 149.656 316.951 152.49 315.488Z"
    fill="#F6C0A4"
  />
<path
    d="M46.473 511.885L46.3607 511.858L45.7441 502.394C45.9889 505.649 46.2319 508.813 46.473 511.885Z"
    fill="#F6C0A4"
  />
<path
    d="M84.3567 569.768V581.996H44.0757V569.768C44.0757 569.768 45.2019 560.89 51.1673 554.59C54.407 551.118 58.8385 548.968 63.5942 548.562C67.3428 548.193 70.4447 549.01 73.0068 550.511C82.0933 555.839 84.3567 569.768 84.3567 569.768Z"
    fill="#798793"
  />
<path
    d="M141.078 569.715V581.929H100.797V569.715C100.797 569.715 102.131 559.213 109.565 552.951C112.596 550.399 116.355 548.846 120.318 548.508C126.7 547.876 131.216 550.68 134.364 554.463C139.634 560.76 141.078 569.715 141.078 569.715Z"
    fill="#798793"
  />
<path
    d="M154.369 210.225L152.876 262.028C152.876 271.325 155.312 292.933 152.525 314.999L152.492 315.493C149.659 316.956 146.705 318.479 145.949 318.894C144.389 319.728 140.263 321.904 141.29 323.161C143.951 326.448 149.629 325.764 151.829 325.349L151.78 326.082C147.335 335.459 142.285 346.509 142.392 348.067C142.499 349.625 146.209 353.525 149.716 356.267L142.721 458.726C140.235 501.953 137.29 541.782 134.39 554.463C131.242 550.693 126.718 547.876 120.344 548.508C116.381 548.846 112.622 550.399 109.592 552.951C107.797 547.026 104.232 502.738 100.741 450.174L92.1008 332.191H90.3361L87.8535 365.62C83.2938 439.206 76.3747 527.527 73.0207 550.519C70.4613 549.018 67.3567 548.201 63.6081 548.57C58.8524 548.977 54.4209 551.126 51.1812 554.599C49.6056 546.508 48.0136 531.096 46.4873 511.89C46.2425 508.814 45.9995 505.647 45.7584 502.39L42.6263 454.256L36.0115 352.64C36.1211 351.747 35.9567 349.639 35.636 346.843L34.4797 329.111C36.9459 330.148 41.0808 331.361 43.98 329.336C45.3117 328.408 41.955 325.183 40.6917 323.951C39.9957 323.27 36.9925 320.423 34.4386 318.02C34.6715 298.266 36.2718 265.011 36.2718 257.292L34.5208 220.132L31.5093 156.466C31.5093 155.796 43.6895 153.296 51.1264 152.642H51.2004C50.6853 150.682 51.4991 149.214 53.7516 148.753C58.4373 147.808 66.31 143.405 71.0779 139.606C86.4231 142.382 104.999 140.192 120.366 136.525L121.287 138.968C126.219 141.804 130.242 143.807 133.316 145.457C136.741 147.295 138.999 148.696 140.071 150.324C140.345 150.742 140.548 151.076 140.687 151.339L139.391 151.174C137.775 149.817 135.484 147.504 135.484 147.504C135.336 148.567 135.051 149.607 134.634 150.598C136.109 150.75 137.805 150.965 139.391 151.174C140.575 152.17 141.397 152.65 140.687 151.339C142.496 151.578 144.006 151.768 144.625 151.795C149.451 152.004 155.997 152.718 155.997 153.405L154.369 210.225Z"
    fill="#F6C0A4"
  />
<path
    d="M139.403 151.16C137.816 150.951 136.115 150.737 134.646 150.585C135.062 149.594 135.348 148.554 135.495 147.491C135.495 147.491 137.792 149.803 139.403 151.16Z"
    fill="#F6C0A4"
  />
<path
    d="M139.403 151.161L140.7 151.327C141.409 152.638 140.587 152.157 139.403 151.161Z"
    fill="#F6C0A4"
  />
<path
    d="M186.998 258.54C186.921 262.837 186.562 265.304 185.951 266.536C183.68 271.091 177.92 258.735 170.058 259.601C164.885 260.174 162.076 262.269 160.437 262.587C160.68 259.279 160.792 255.98 160.772 252.691C160.698 238.341 158.234 224.159 154.368 210.229L156.012 153.401C156.012 152.715 149.465 152.001 144.64 151.792C144.021 151.765 142.511 151.575 140.702 151.336C140.562 151.064 140.36 150.739 140.086 150.321C139.014 148.692 136.756 147.292 133.331 145.454C142.524 146.42 152.74 148.364 160.012 148.915C170.001 147.815 178.964 156.227 179.931 167.608L186.998 258.54Z"
    fill="#F6C0A4"
  />
<path
    d="M29.3106 346.346C39.1123 343.681 32.9907 330.802 30.815 319.687L28.4858 271.403C27.6966 267.706 28.3405 256.331 28.0282 252.564C27.2253 242.863 18.2073 242.654 9.47696 245.029C-0.324762 247.692 -1.19341 259.327 0.982318 270.442L12.905 331.344C15.0807 342.459 19.5089 349.011 29.3106 346.346Z"
    fill="#F6C0A4"
  />
<path
    d="M154.269 343.893C144.517 341.534 149.156 339.328 151.724 328.186L158.919 258.533C161.487 247.388 167.921 239.949 177.676 242.307C187.429 244.663 187.481 261.41 184.91 272.555L171.264 328.441C168.696 339.585 164.022 346.252 154.269 343.893Z"
    fill="#F6C0A4"
  />
<path
    d="M153.703 312.133L142.155 502.602C142.155 502.602 115.23 512.409 103.483 503.973L91.9081 332.243H90.1105L79.9882 501.934C69.1808 510.37 44.4586 500.648 44.4586 500.648L34.2377 325.403H34.3199C33.7718 310.011 36.1147 263.117 36.1147 253.707L31.8921 149.575C31.8921 148.896 43.6311 148.378 51.153 147.718C54.2867 147.441 57.4453 147.702 60.4889 148.492L85.0795 150.989C86.5099 151.364 92.8096 186.293 94.3168 186.421C102.614 187.132 99.3779 155.207 107.549 153.657C109.103 153.361 108.547 153.535 109.04 153.454L131.866 145.447C133.724 145.143 143.816 146.76 145.712 146.842C150.592 147.053 157.221 147.775 157.221 148.47L154.053 258.492C154.056 267.899 156.519 289.782 153.703 312.133Z"
    fill="#97AFD1"
  />
<path
    d="M145.52 183.217H126.042C124.461 183.217 123.179 184.487 123.179 186.052C123.179 187.618 124.461 188.887 126.042 188.887H145.52C147.101 188.887 148.383 187.618 148.383 186.052C148.383 184.487 147.101 183.217 145.52 183.217Z"
    fill="white"
  />
<path
    d="M158.324 312.483C158.324 312.483 158.324 312.507 158.299 312.534L152.714 325.15C152.714 325.15 152.509 325.205 152.147 325.281L152.021 325.305L151.816 325.346C149.623 325.761 143.938 326.445 141.277 323.158C140.26 321.901 144.387 319.725 145.935 318.891C146.691 318.481 149.645 316.953 152.479 315.49L153.057 315.192L158.324 312.483Z"
    fill="#F6C0A4"
  />
<path
    d="M169.002 335.657C168.948 337.376 168.587 339.073 167.936 340.667C162.628 353.498 157.197 356.423 155.775 358.82C155.148 359.881 152.487 358.443 149.706 356.266C146.198 353.525 142.485 349.611 142.381 348.066C142.277 346.522 147.313 335.459 151.769 326.081L151.991 325.612C152.043 325.5 152.095 325.392 152.15 325.283C155.274 318.709 158.008 313.132 158.302 312.526C158.302 312.499 158.324 312.485 158.326 312.475C158.326 312.475 169.432 324.417 169.002 335.657Z"
    fill="#F6C0A4"
  />
<path
    d="M43.9672 329.339C41.068 331.364 36.9193 330.153 34.4668 329.114C33.8201 328.842 33.2913 328.571 32.9324 328.389C32.6063 328.221 32.4254 328.117 32.4254 328.117L31.9541 324.616L30.584 314.454C30.584 314.424 30.584 314.411 30.584 314.411L34.4203 318.039C36.9742 320.447 39.9774 323.289 40.6735 323.97C41.9422 325.186 45.2989 328.411 43.9672 329.339Z"
    fill="#F6C0A4"
  />
<path
    d="M35.996 352.641C35.9869 352.749 35.9649 352.855 35.9302 352.958C34.9739 355.567 20.7412 362.303 20.037 359.608C19.3328 356.913 14.9457 352.611 13.4413 338.828C13.2897 337.413 13.3525 335.984 13.6277 334.588C15.7568 323.509 29.9099 314.791 30.5457 314.405L30.5676 314.392C30.5676 314.392 30.5676 314.405 30.5676 314.435C30.669 314.991 31.7377 321.126 32.905 328.351C32.905 328.351 32.905 328.367 32.905 328.375C33.4996 332.048 34.1162 336 34.6423 339.645C35.0232 342.278 35.3548 344.745 35.5987 346.832C35.9412 349.639 36.1056 351.748 35.996 352.641Z"
    fill="#F6C0A4"
  />
<path
    d="M95.8103 26.7904L94.8384 26.8297H94.8362L93.9736 26.8646L90.6618 26.9987L90.6115 27.0007L90.4647 27.0066L90.3227 27.0124L90.2125 27.0168L90.1079 27.021L89.7079 27.0372L89.517 27.045C87.5434 27.1249 85.5349 27.2065 85.5349 27.2065V27.2058L85.4538 27.0482L85.4116 26.9664C88.0004 26.7387 90.1832 26.5976 91.9255 26.5101C92.1607 26.4984 92.3875 26.4875 92.606 26.4776H92.6108C92.9132 26.4639 93.2003 26.4519 93.4715 26.4414L94.5976 26.6095L95.8103 26.7904Z"
    fill="#4D5E91"
  />
<path
    d="M95.8119 26.7902L96.9039 26.746V26.7465L95.8141 26.7905L94.8422 26.8298H94.8396L93.9771 26.8647L90.6631 26.9985L90.6128 27.0006L90.4659 27.0065L90.3239 27.0122L90.2138 27.0166L90.1092 27.0209L89.7091 27.0371L89.5182 27.0448L85.5358 27.2057L85.5244 27.2061L85.4797 27.0775L85.4547 27.0481L92.6066 26.7048L93.711 26.6518H93.7143L94.5989 26.6094L95.8119 26.7902Z"
    fill="#839AE2"
  />
<path
    d="M93.7516 26.4879L96.9026 26.2642V26.9583L93.7516 26.4879Z"
    fill="#9CB3EF"
  />
<path
    d="M85.3319 26.7889L91.9273 26.3701V26.6255L85.4138 26.9664L85.3319 26.7889Z"
    fill="#839AE2"
  />
<path
    d="M96.9035 26.9532L96.9208 27.1519L94.8415 26.8297L94.8396 26.8294L93.715 26.6516L92.6128 26.4773L92.125 26.4006L93.1711 26.396L93.4735 26.4411L94.5996 26.6092L95.8116 26.7902L95.8138 26.7905L96.9035 26.9532Z"
    fill="#5C73A5"
  />
<path
    d="M91.9268 26.6255L96.9207 27.2014V27.1508L91.9268 26.3701V26.6255Z"
    fill="#9CB3EF"
  />
<path
    d="M90.0093 27.0251C90.0093 27.0251 94.1506 26.908 96.9214 27.2027L93.9851 26.8628L90.0093 27.0251Z"
    fill="#4D5E91"
  />
<path
    d="M98.0175 26.7832L98.9894 26.8224H98.9916L99.8541 26.8573L103.166 26.9914L103.216 26.9934L103.363 26.9994L103.505 27.0051L103.615 27.0095L103.72 27.0137L104.12 27.03L104.311 27.0377C106.284 27.1176 108.293 27.1993 108.293 27.1993V27.1985L108.374 27.0409L108.416 26.9591C105.827 26.7315 103.645 26.5903 101.902 26.5029C101.667 26.4911 101.44 26.4802 101.222 26.4703H101.217C100.915 26.4566 100.628 26.4446 100.356 26.4341L99.2302 26.6022L98.0175 26.7832Z"
    fill="#4D5E91"
  />
<path
    d="M98.0171 26.7832L96.9252 26.739V26.7395L98.0149 26.7835L98.9868 26.8228H98.9894L99.852 26.8577L103.166 26.9915L103.216 26.9936L103.363 26.9995L103.505 27.0052L103.615 27.0097L103.72 27.0139L104.12 27.0301L104.311 27.0378L108.293 27.1987L108.305 27.1991L108.357 27.0686L108.374 27.0411L101.223 26.6978L100.117 26.6449H100.114L99.2291 26.6025L98.0171 26.7832Z"
    fill="#9CB3EF"
  />
<path
    d="M100.077 26.4802L96.8864 26.2642V26.9541L100.077 26.4802Z"
    fill="#839AE2"
  />
<path
    d="M108.498 26.782L101.902 26.3633V26.6187L108.416 26.9596L108.498 26.782Z"
    fill="#839AE2"
  />
<path
    d="M96.8864 26.954L96.9264 27.1485L98.988 26.8224L98.9902 26.8221L100.115 26.6443L101.217 26.47L101.705 26.3933L100.658 26.3887L100.356 26.4338L99.2303 26.6019L98.0183 26.7829L98.0161 26.7832L96.8864 26.954Z"
    fill="#5C73A5"
  />
<path
    d="M101.902 26.6187L96.9252 27.1997V27.1491L101.902 26.3633V26.6187Z"
    fill="#839AE2"
  />
<path
    d="M103.82 27.0182C103.82 27.0182 99.6963 26.9049 96.9252 27.1996L99.8648 26.8564L103.82 27.0182Z"
    fill="#4D5E91"
  />
<path
    opacity="0.19"
    d="M89.8757 26.7317L91.9367 26.6163L92.9651 26.7447L91.929 26.3706L89.8757 26.7317Z"
    fill="white"
  />
<path
    opacity="0.19"
    d="M104.042 26.7312L101.876 26.6145L100.702 26.7565L101.913 26.3608L104.042 26.7312Z"
    fill="white"
  />
</svg>
